<mxfile host="app.diagrams.net" modified="2024-05-10T20:52:42.127Z" agent="Mozilla/5.0 (Macintosh; Intel Mac OS X 10_15_7) AppleWebKit/537.36 (KHTML, like Gecko) Chrome/123.0.0.0 Safari/537.36 OPR/109.0.0.0" etag="dC8zplL7RNmzPPwUC8T7" version="24.3.1" type="device">
  <diagram name="PÃ¡gina-1" id="GKcQqyCfQ1V4mNrMHVXt">
    <mxGraphModel dx="1374" dy="795" grid="1" gridSize="10" guides="1" tooltips="1" connect="1" arrows="1" fold="1" page="1" pageScale="1" pageWidth="827" pageHeight="1169" math="0" shadow="0">
      <root>
        <mxCell id="0" />
        <mxCell id="1" parent="0" />
        <mxCell id="48W_m3RGSCvSOmZZA0Iu-25" style="edgeStyle=none;rounded=0;orthogonalLoop=1;jettySize=auto;html=1;strokeColor=default;strokeWidth=1;align=center;verticalAlign=middle;fontFamily=Helvetica;fontSize=11;fontColor=default;labelBackgroundColor=default;endArrow=none;endFill=0;" parent="1" source="48W_m3RGSCvSOmZZA0Iu-5" edge="1">
          <mxGeometry relative="1" as="geometry">
            <mxPoint x="461" y="83" as="targetPoint" />
          </mxGeometry>
        </mxCell>
        <mxCell id="48W_m3RGSCvSOmZZA0Iu-26" style="edgeStyle=none;rounded=0;orthogonalLoop=1;jettySize=auto;html=1;strokeColor=default;strokeWidth=1;align=center;verticalAlign=middle;fontFamily=Helvetica;fontSize=11;fontColor=default;labelBackgroundColor=default;endArrow=none;endFill=0;" parent="1" source="48W_m3RGSCvSOmZZA0Iu-5" target="48W_m3RGSCvSOmZZA0Iu-19" edge="1">
          <mxGeometry relative="1" as="geometry">
            <mxPoint x="-49" y="358.18" as="targetPoint" />
          </mxGeometry>
        </mxCell>
        <mxCell id="48W_m3RGSCvSOmZZA0Iu-27" style="edgeStyle=none;rounded=0;orthogonalLoop=1;jettySize=auto;html=1;strokeColor=default;strokeWidth=1;align=center;verticalAlign=middle;fontFamily=Helvetica;fontSize=11;fontColor=default;labelBackgroundColor=default;endArrow=none;endFill=0;" parent="1" source="48W_m3RGSCvSOmZZA0Iu-5" target="48W_m3RGSCvSOmZZA0Iu-20" edge="1">
          <mxGeometry relative="1" as="geometry" />
        </mxCell>
        <mxCell id="48W_m3RGSCvSOmZZA0Iu-28" style="edgeStyle=none;rounded=0;orthogonalLoop=1;jettySize=auto;html=1;strokeColor=default;strokeWidth=1;align=center;verticalAlign=middle;fontFamily=Helvetica;fontSize=11;fontColor=default;labelBackgroundColor=default;endArrow=none;endFill=0;" parent="1" source="48W_m3RGSCvSOmZZA0Iu-5" target="48W_m3RGSCvSOmZZA0Iu-21" edge="1">
          <mxGeometry relative="1" as="geometry">
            <Array as="points">
              <mxPoint x="320" y="180" />
            </Array>
          </mxGeometry>
        </mxCell>
        <mxCell id="tfnrAoQ7Zi7adhCi03Up-3" style="edgeStyle=none;rounded=0;orthogonalLoop=1;jettySize=auto;html=1;strokeColor=default;strokeWidth=1;align=center;verticalAlign=middle;fontFamily=Helvetica;fontSize=11;fontColor=default;labelBackgroundColor=default;endArrow=none;endFill=0;" edge="1" parent="1" source="48W_m3RGSCvSOmZZA0Iu-5" target="tfnrAoQ7Zi7adhCi03Up-1">
          <mxGeometry relative="1" as="geometry" />
        </mxCell>
        <mxCell id="48W_m3RGSCvSOmZZA0Iu-5" value="planes" style="rounded=0;whiteSpace=wrap;html=1;fillColor=#ffff88;strokeColor=#36393d;fontSize=13;fontStyle=1" parent="1" vertex="1">
          <mxGeometry x="401" y="159" width="120" height="40" as="geometry" />
        </mxCell>
        <mxCell id="48W_m3RGSCvSOmZZA0Iu-18" value="&lt;u&gt;codigo&lt;/u&gt;" style="ellipse;whiteSpace=wrap;html=1;fillColor=#cce5ff;strokeColor=#36393d;" parent="1" vertex="1">
          <mxGeometry x="401" y="44" width="120" height="35" as="geometry" />
        </mxCell>
        <mxCell id="48W_m3RGSCvSOmZZA0Iu-19" value="velocidad_megas" style="ellipse;whiteSpace=wrap;html=1;fillColor=#cce5ff;strokeColor=#36393d;" parent="1" vertex="1">
          <mxGeometry x="601" y="159" width="120" height="35" as="geometry" />
        </mxCell>
        <mxCell id="48W_m3RGSCvSOmZZA0Iu-20" value="precio" style="ellipse;whiteSpace=wrap;html=1;fillColor=#cce5ff;strokeColor=#36393d;" parent="1" vertex="1">
          <mxGeometry x="601" y="234" width="120" height="35" as="geometry" />
        </mxCell>
        <mxCell id="48W_m3RGSCvSOmZZA0Iu-29" style="edgeStyle=none;rounded=0;orthogonalLoop=1;jettySize=auto;html=1;strokeColor=default;strokeWidth=1;align=center;verticalAlign=middle;fontFamily=Helvetica;fontSize=11;fontColor=default;labelBackgroundColor=default;endArrow=none;endFill=0;" parent="1" source="48W_m3RGSCvSOmZZA0Iu-21" target="48W_m3RGSCvSOmZZA0Iu-22" edge="1">
          <mxGeometry relative="1" as="geometry">
            <Array as="points">
              <mxPoint x="321" y="580" />
            </Array>
          </mxGeometry>
        </mxCell>
        <mxCell id="HLoZswmGWW6CU3G7SCZJ-18" style="edgeStyle=none;rounded=0;orthogonalLoop=1;jettySize=auto;html=1;strokeColor=default;strokeWidth=1;align=center;verticalAlign=middle;fontFamily=Helvetica;fontSize=11;fontColor=default;labelBackgroundColor=default;endArrow=none;endFill=0;" parent="1" source="48W_m3RGSCvSOmZZA0Iu-21" target="HLoZswmGWW6CU3G7SCZJ-14" edge="1">
          <mxGeometry relative="1" as="geometry" />
        </mxCell>
        <mxCell id="HLoZswmGWW6CU3G7SCZJ-19" style="edgeStyle=none;rounded=0;orthogonalLoop=1;jettySize=auto;html=1;strokeColor=default;strokeWidth=1;align=center;verticalAlign=middle;fontFamily=Helvetica;fontSize=11;fontColor=default;labelBackgroundColor=default;endArrow=none;endFill=0;" parent="1" source="48W_m3RGSCvSOmZZA0Iu-21" target="HLoZswmGWW6CU3G7SCZJ-15" edge="1">
          <mxGeometry relative="1" as="geometry" />
        </mxCell>
        <mxCell id="HLoZswmGWW6CU3G7SCZJ-20" style="edgeStyle=none;rounded=0;orthogonalLoop=1;jettySize=auto;html=1;strokeColor=default;strokeWidth=1;align=center;verticalAlign=middle;fontFamily=Helvetica;fontSize=11;fontColor=default;labelBackgroundColor=default;endArrow=none;endFill=0;" parent="1" source="48W_m3RGSCvSOmZZA0Iu-21" target="HLoZswmGWW6CU3G7SCZJ-16" edge="1">
          <mxGeometry relative="1" as="geometry" />
        </mxCell>
        <mxCell id="HLoZswmGWW6CU3G7SCZJ-22" style="edgeStyle=none;rounded=0;orthogonalLoop=1;jettySize=auto;html=1;strokeColor=default;strokeWidth=1;align=center;verticalAlign=middle;fontFamily=Helvetica;fontSize=11;fontColor=default;labelBackgroundColor=default;endArrow=none;endFill=0;" parent="1" source="48W_m3RGSCvSOmZZA0Iu-21" target="HLoZswmGWW6CU3G7SCZJ-21" edge="1">
          <mxGeometry relative="1" as="geometry" />
        </mxCell>
        <mxCell id="48W_m3RGSCvSOmZZA0Iu-21" value="consumido" style="rhombus;whiteSpace=wrap;html=1;fontFamily=Helvetica;fontSize=11;labelBackgroundColor=none;fillColor=#d1d1d1;strokeColor=#36393d;labelBorderColor=none;" parent="1" vertex="1">
          <mxGeometry x="260" y="319" width="120" height="120" as="geometry" />
        </mxCell>
        <mxCell id="48W_m3RGSCvSOmZZA0Iu-55" style="edgeStyle=none;rounded=0;orthogonalLoop=1;jettySize=auto;html=1;strokeColor=default;strokeWidth=1;align=center;verticalAlign=middle;fontFamily=Helvetica;fontSize=11;fontColor=default;labelBackgroundColor=default;endArrow=none;endFill=0;" parent="1" source="48W_m3RGSCvSOmZZA0Iu-22" target="48W_m3RGSCvSOmZZA0Iu-52" edge="1">
          <mxGeometry relative="1" as="geometry" />
        </mxCell>
        <mxCell id="48W_m3RGSCvSOmZZA0Iu-57" style="edgeStyle=none;rounded=0;orthogonalLoop=1;jettySize=auto;html=1;strokeColor=default;strokeWidth=1;align=center;verticalAlign=middle;fontFamily=Helvetica;fontSize=11;fontColor=default;labelBackgroundColor=default;endArrow=none;endFill=0;" parent="1" source="48W_m3RGSCvSOmZZA0Iu-22" target="48W_m3RGSCvSOmZZA0Iu-54" edge="1">
          <mxGeometry relative="1" as="geometry" />
        </mxCell>
        <mxCell id="48W_m3RGSCvSOmZZA0Iu-59" style="edgeStyle=none;rounded=0;orthogonalLoop=1;jettySize=auto;html=1;strokeColor=default;strokeWidth=1;align=center;verticalAlign=middle;fontFamily=Helvetica;fontSize=11;fontColor=default;labelBackgroundColor=default;endArrow=none;endFill=0;" parent="1" source="48W_m3RGSCvSOmZZA0Iu-22" target="48W_m3RGSCvSOmZZA0Iu-58" edge="1">
          <mxGeometry relative="1" as="geometry" />
        </mxCell>
        <mxCell id="HLoZswmGWW6CU3G7SCZJ-9" style="edgeStyle=none;rounded=0;orthogonalLoop=1;jettySize=auto;html=1;strokeColor=default;strokeWidth=1;align=center;verticalAlign=middle;fontFamily=Helvetica;fontSize=11;fontColor=default;labelBackgroundColor=default;endArrow=none;endFill=0;" parent="1" source="48W_m3RGSCvSOmZZA0Iu-22" target="HLoZswmGWW6CU3G7SCZJ-6" edge="1">
          <mxGeometry relative="1" as="geometry" />
        </mxCell>
        <mxCell id="HLoZswmGWW6CU3G7SCZJ-10" style="edgeStyle=none;rounded=0;orthogonalLoop=1;jettySize=auto;html=1;strokeColor=default;strokeWidth=1;align=center;verticalAlign=middle;fontFamily=Helvetica;fontSize=11;fontColor=default;labelBackgroundColor=default;endArrow=none;endFill=0;" parent="1" source="48W_m3RGSCvSOmZZA0Iu-22" target="HLoZswmGWW6CU3G7SCZJ-5" edge="1">
          <mxGeometry relative="1" as="geometry" />
        </mxCell>
        <mxCell id="HLoZswmGWW6CU3G7SCZJ-11" style="edgeStyle=none;rounded=0;orthogonalLoop=1;jettySize=auto;html=1;strokeColor=default;strokeWidth=1;align=center;verticalAlign=middle;fontFamily=Helvetica;fontSize=11;fontColor=default;labelBackgroundColor=default;endArrow=none;endFill=0;" parent="1" source="48W_m3RGSCvSOmZZA0Iu-22" target="HLoZswmGWW6CU3G7SCZJ-7" edge="1">
          <mxGeometry relative="1" as="geometry" />
        </mxCell>
        <mxCell id="HLoZswmGWW6CU3G7SCZJ-12" style="edgeStyle=none;rounded=0;orthogonalLoop=1;jettySize=auto;html=1;strokeColor=default;strokeWidth=1;align=center;verticalAlign=middle;fontFamily=Helvetica;fontSize=11;fontColor=default;labelBackgroundColor=default;endArrow=none;endFill=0;" parent="1" source="48W_m3RGSCvSOmZZA0Iu-22" target="HLoZswmGWW6CU3G7SCZJ-8" edge="1">
          <mxGeometry relative="1" as="geometry" />
        </mxCell>
        <mxCell id="48W_m3RGSCvSOmZZA0Iu-22" value="clientes" style="rounded=0;whiteSpace=wrap;html=1;fillColor=#ffff88;strokeColor=#36393d;fontSize=13;fontStyle=1" parent="1" vertex="1">
          <mxGeometry x="401" y="559.1800000000001" width="120" height="40" as="geometry" />
        </mxCell>
        <mxCell id="48W_m3RGSCvSOmZZA0Iu-52" value="&lt;u&gt;id&lt;/u&gt;" style="ellipse;whiteSpace=wrap;html=1;fillColor=#cce5ff;strokeColor=#36393d;" parent="1" vertex="1">
          <mxGeometry x="401" y="444" width="120" height="35" as="geometry" />
        </mxCell>
        <mxCell id="48W_m3RGSCvSOmZZA0Iu-54" value="dni" style="ellipse;whiteSpace=wrap;html=1;fillColor=#cce5ff;strokeColor=#36393d;" parent="1" vertex="1">
          <mxGeometry x="601" y="416.99" width="120" height="35" as="geometry" />
        </mxCell>
        <mxCell id="48W_m3RGSCvSOmZZA0Iu-58" value="nombre" style="ellipse;whiteSpace=wrap;html=1;fillColor=#cce5ff;strokeColor=#36393d;" parent="1" vertex="1">
          <mxGeometry x="601" y="488.86" width="120" height="35" as="geometry" />
        </mxCell>
        <mxCell id="48W_m3RGSCvSOmZZA0Iu-82" value="&lt;b style=&quot;font-size: 20px;&quot;&gt;&lt;font style=&quot;font-size: 20px;&quot;&gt;n&lt;/font&gt;&lt;/b&gt;" style="text;html=1;align=center;verticalAlign=middle;resizable=0;points=[];autosize=1;strokeColor=none;fillColor=none;fontFamily=Helvetica;fontSize=20;fontColor=default;labelBackgroundColor=default;" parent="1" vertex="1">
          <mxGeometry x="369" y="146" width="40" height="40" as="geometry" />
        </mxCell>
        <mxCell id="HLoZswmGWW6CU3G7SCZJ-1" value="&lt;b style=&quot;font-size: 20px;&quot;&gt;&lt;font style=&quot;font-size: 20px;&quot;&gt;n&lt;/font&gt;&lt;/b&gt;" style="text;html=1;align=center;verticalAlign=middle;resizable=0;points=[];autosize=1;strokeColor=none;fillColor=none;fontFamily=Helvetica;fontSize=20;fontColor=default;labelBackgroundColor=default;" parent="1" vertex="1">
          <mxGeometry x="369" y="572.1800000000001" width="40" height="40" as="geometry" />
        </mxCell>
        <mxCell id="HLoZswmGWW6CU3G7SCZJ-4" style="edgeStyle=none;rounded=0;orthogonalLoop=1;jettySize=auto;html=1;strokeColor=default;strokeWidth=1;align=center;verticalAlign=middle;fontFamily=Helvetica;fontSize=11;fontColor=default;labelBackgroundColor=default;endArrow=none;endFill=0;" parent="1" source="HLoZswmGWW6CU3G7SCZJ-2" target="48W_m3RGSCvSOmZZA0Iu-21" edge="1">
          <mxGeometry relative="1" as="geometry" />
        </mxCell>
        <mxCell id="HLoZswmGWW6CU3G7SCZJ-2" value="descuento" style="ellipse;whiteSpace=wrap;html=1;fillColor=#cce5ff;strokeColor=#36393d;" parent="1" vertex="1">
          <mxGeometry x="60" y="284" width="120" height="35" as="geometry" />
        </mxCell>
        <mxCell id="HLoZswmGWW6CU3G7SCZJ-5" value="apellido" style="ellipse;whiteSpace=wrap;html=1;fillColor=#cce5ff;strokeColor=#36393d;" parent="1" vertex="1">
          <mxGeometry x="601" y="560.74" width="120" height="35" as="geometry" />
        </mxCell>
        <mxCell id="HLoZswmGWW6CU3G7SCZJ-6" value="fecha_nacimiento" style="ellipse;whiteSpace=wrap;html=1;fillColor=#cce5ff;strokeColor=#36393d;" parent="1" vertex="1">
          <mxGeometry x="601" y="632.61" width="120" height="35" as="geometry" />
        </mxCell>
        <mxCell id="HLoZswmGWW6CU3G7SCZJ-7" value="provincia" style="ellipse;whiteSpace=wrap;html=1;fillColor=#cce5ff;strokeColor=#36393d;" parent="1" vertex="1">
          <mxGeometry x="601" y="706.36" width="120" height="35" as="geometry" />
        </mxCell>
        <mxCell id="HLoZswmGWW6CU3G7SCZJ-8" value="ciudad" style="ellipse;whiteSpace=wrap;html=1;fillColor=#cce5ff;strokeColor=#36393d;" parent="1" vertex="1">
          <mxGeometry x="401" y="681" width="120" height="35" as="geometry" />
        </mxCell>
        <mxCell id="HLoZswmGWW6CU3G7SCZJ-14" value="&lt;u&gt;id&lt;/u&gt;" style="ellipse;whiteSpace=wrap;html=1;fillColor=#cce5ff;strokeColor=#36393d;" parent="1" vertex="1">
          <mxGeometry x="60" y="204" width="120" height="35" as="geometry" />
        </mxCell>
        <mxCell id="HLoZswmGWW6CU3G7SCZJ-15" value="fecha_inicio" style="ellipse;whiteSpace=wrap;html=1;fillColor=#cce5ff;strokeColor=#36393d;" parent="1" vertex="1">
          <mxGeometry x="60" y="441" width="120" height="35" as="geometry" />
        </mxCell>
        <mxCell id="HLoZswmGWW6CU3G7SCZJ-16" value="fecha_fin" style="ellipse;whiteSpace=wrap;html=1;fillColor=#cce5ff;strokeColor=#36393d;" parent="1" vertex="1">
          <mxGeometry x="60" y="521" width="120" height="35" as="geometry" />
        </mxCell>
        <mxCell id="HLoZswmGWW6CU3G7SCZJ-21" value="total" style="ellipse;whiteSpace=wrap;html=1;fillColor=#cce5ff;strokeColor=#36393d;" parent="1" vertex="1">
          <mxGeometry x="60" y="361.5" width="120" height="35" as="geometry" />
        </mxCell>
        <mxCell id="tfnrAoQ7Zi7adhCi03Up-1" value="identificacion_plan" style="ellipse;whiteSpace=wrap;html=1;fillColor=#cce5ff;strokeColor=#36393d;" vertex="1" parent="1">
          <mxGeometry x="601" y="79" width="120" height="35" as="geometry" />
        </mxCell>
      </root>
    </mxGraphModel>
  </diagram>
</mxfile>
